<svg xmlns="http://www.w3.org/2000/svg" width="419" height="444" viewBox="0 0 419 444" fill="none">
<g filter="url(#filter0_d_2004_391)">
<path d="M230.431 304.251C230.318 311.628 236.41 317.793 244.071 317.851C251.759 317.909 257.945 311.991 257.992 304.53C258.038 297.172 251.953 291.202 244.325 291.117C244.272 291.117 244.218 291.117 244.171 291.117C236.697 291.117 230.545 297.029 230.438 304.251M291.497 214.812C290.942 214.916 290.395 215.058 289.854 215.214C288.397 215.629 286.955 216.076 285.498 216.478C284.443 216.77 283.488 217.224 282.64 217.904C282.185 218.267 281.678 218.572 281.203 218.909C280.642 219.311 280.068 219.693 279.547 220.128C278.765 220.77 278.131 221.56 277.944 222.546C277.75 223.538 277.389 224.458 277.009 225.385C276.935 225.567 276.882 225.768 276.828 225.955C276.648 226.656 276.668 227.343 277.022 227.997C277.269 228.464 277.483 228.944 277.757 229.398C278.438 230.545 278.605 231.699 278.084 232.976C277.61 234.156 277.823 234.636 278.845 235.446C279.139 235.679 279.427 235.919 279.774 236.198C279.493 236.528 279.253 236.801 278.979 237.125C279.3 237.274 279.587 237.41 279.841 237.533C279.961 238.992 280.075 240.405 280.201 241.876C279.64 242.123 279.066 242.343 278.525 242.615C277.89 242.933 277.269 243.283 276.655 243.646C276.247 243.893 275.906 244.262 275.893 244.722C275.86 245.721 275.138 246.31 274.504 246.874C274.043 247.289 273.742 247.698 273.528 248.249C273.321 248.78 273.094 249.338 272.72 249.759C272.366 250.161 272.039 250.55 271.812 251.036C271.672 251.341 271.451 251.71 271.171 251.834C270.75 252.015 270.476 252.274 270.329 252.65C269.888 253.804 268.953 254.478 267.931 255.075C267.824 255.14 267.724 255.224 267.61 255.282C266.548 255.885 265.486 256.481 264.451 257.058C263.168 256.105 261.966 255.204 260.764 254.316C260.203 253.901 259.742 253.402 259.414 252.793C258.66 251.373 257.905 249.954 257.157 248.534C256.836 247.925 256.689 247.27 256.682 246.583C256.682 245.435 256.669 244.288 256.682 243.141C256.689 242.622 256.649 242.116 256.295 241.727C255.66 241.04 254.992 240.385 254.331 239.724C253.997 239.387 253.61 239.096 253.302 238.732C252.321 237.579 251.392 236.373 250.39 235.238C249.255 233.955 247.444 234.311 246.83 235.906C246.743 236.139 246.703 236.386 246.65 236.632C246.609 236.801 246.583 236.969 246.543 237.164C246.316 237.19 246.115 237.203 245.915 237.229C244.572 237.404 243.924 238.331 244.325 239.582C244.485 240.074 244.773 240.522 245.04 241.066C244.666 241.384 244.445 241.941 243.824 241.876C243.223 241.818 242.889 242.129 242.695 242.596C242.141 243.925 242.321 244.865 243.303 245.727C243.523 245.922 243.757 246.142 243.898 246.395C244.753 247.996 245.921 249.351 247.358 250.472C248.079 251.036 248.64 251.697 249.027 252.495C249.682 253.85 250.377 255.191 250.965 256.572C252.073 259.178 253.282 261.745 254.692 264.215C255.533 265.7 256.422 267.165 257.524 268.493C258.245 269.369 258.947 270.263 259.635 271.164C260.203 271.897 260.917 272.389 261.859 272.513C262.24 272.565 262.634 272.552 263.008 272.623C264.992 272.979 266.789 272.506 268.439 271.456C269.387 270.853 270.296 270.198 271.217 269.57C271.424 269.427 271.605 269.239 271.905 269.343C272.426 269.518 272.854 269.284 273.268 269.006C274.45 268.208 275.633 267.411 276.815 266.614C277.022 266.477 277.236 266.348 277.51 266.179C277.563 266.516 277.616 266.782 277.643 267.048C278.011 270.121 278.378 273.193 278.752 276.272C279.3 280.823 280.622 285.16 282.653 289.296C282.793 289.581 282.86 289.905 282.907 290.223C283.06 291.26 283.134 292.31 283.328 293.341C283.615 294.884 283.969 296.42 284.303 298.028C284.249 298.06 284.163 298.112 284.089 298.177C283.615 298.598 283.555 298.799 283.782 299.35C283.889 299.603 284.016 299.849 284.169 300.083C284.643 300.796 285.144 301.489 285.612 302.209C285.913 302.663 286.173 303.149 286.427 303.57C285.151 305.042 285.492 306.805 285.184 308.464C284.056 308.348 283.067 308.607 282.159 309.21C282.018 309.301 281.818 309.301 281.644 309.346C276.508 310.72 271.692 312.723 267.637 316.172C266.321 317.294 265.059 318.467 263.816 319.66C262.52 320.904 261.338 322.279 259.989 323.465C258.579 324.703 257.05 325.812 255.54 326.927C254.465 327.717 253.743 328.716 253.483 329.986C253.309 330.816 253.249 331.665 253.149 332.508C252.962 334.122 253.282 335.574 254.171 337.007C255.781 339.593 257.831 341.752 260.249 343.612C261.979 344.948 263.729 346.257 265.479 347.573C265.793 347.807 265.994 348.079 266.081 348.481C266.147 348.798 266.395 349.097 266.595 349.375C266.782 349.641 267.036 349.862 267.236 350.121C267.884 350.983 268.719 351.631 269.681 352.15C270.336 352.5 270.984 352.856 271.591 353.271C275.299 355.8 278.959 358.38 282.205 361.472C284.129 363.306 286.16 365.044 288.13 366.839C288.538 367.209 288.898 367.624 289.326 368.064C288.591 368.901 288.037 369.776 287.088 370.288C286.567 370.567 286.44 371.241 286.854 371.61C287.075 371.805 287.382 371.908 287.663 372.019C287.983 372.148 288.324 372.239 288.598 372.33C288.598 372.771 288.524 373.134 288.611 373.458C288.865 374.372 289.172 375.266 289.473 376.167C289.613 376.595 289.82 377.004 289.9 377.438C290.395 380.148 290.548 382.89 290.582 385.638C290.588 386.403 290.648 387.194 290.822 387.94C291.216 389.586 292.813 390.319 294.422 389.651C295.291 389.288 296.012 388.717 296.613 388.03C297.081 387.492 297.642 387.214 298.343 387.181C298.651 387.168 298.958 387.149 299.265 387.168C300.147 387.22 300.615 386.701 301.015 386.034C301.115 385.865 301.035 385.554 300.955 385.34C300.895 385.172 300.721 385.042 300.594 384.893C300.875 384.497 300.775 384.167 300.488 383.849C300.187 383.519 299.893 383.175 299.786 382.689C300.08 382.605 300.321 382.527 300.561 382.455C300.808 382.384 301.062 382.332 301.303 382.248C302.051 381.969 302.271 381.464 301.93 380.757C301.777 380.446 301.543 380.167 301.343 379.882C301.229 379.72 301.095 379.577 301.062 379.532C301.49 377.976 301.924 376.537 302.284 375.085C302.812 372.926 303.333 370.761 304.095 368.667C304.422 367.766 304.97 367.183 305.965 366.988C306.626 366.859 306.913 366.431 306.833 365.789C306.8 365.523 306.726 365.244 306.606 365.005C306.459 364.7 306.466 364.441 306.633 364.155C307.014 363.494 306.9 362.833 306.506 362.237C306.065 361.562 305.557 360.934 305.07 360.298C304.462 359.507 303.647 359.028 302.672 358.762C302.057 358.593 301.429 358.418 300.855 358.146C300.381 357.913 299.906 357.809 299.385 357.764C298.671 357.699 297.956 357.608 297.255 357.478C296.54 357.349 295.879 357.381 295.244 357.757C295.144 357.816 295.03 357.848 294.89 357.906C293.441 355.566 291.59 353.582 289.773 351.573C288.464 350.121 287.295 348.578 286.307 346.899C285.645 345.771 284.911 344.682 284.263 343.548C283.027 341.37 281.497 339.405 279.794 337.551C279.387 337.104 278.972 336.657 278.565 336.209C278.438 336.067 278.331 335.911 278.258 335.808C280.796 335.257 283.314 334.751 285.806 334.155C287.322 333.792 288.785 333.189 290.308 332.852C293.34 332.19 296.213 331.14 298.985 329.798C299.178 329.701 299.385 329.63 299.539 329.571C300.287 330.615 300.969 331.62 301.71 332.566C303.507 334.855 305.524 336.955 307.675 338.939C310.2 341.272 312.979 343.295 315.811 345.24C317.374 346.309 318.797 347.521 320.112 348.87C320.64 349.408 321.275 349.849 321.842 350.348C322.47 350.899 323.145 351.411 323.699 352.027C325.236 353.725 327.019 355.08 329.183 355.929C330.065 356.273 330.96 356.59 331.869 356.869C333.205 357.284 334.447 357.874 335.583 358.658C336.458 359.268 337.366 359.812 338.281 360.363C339.677 361.206 340.966 362.211 342.296 363.151C342.416 363.235 342.556 363.345 342.61 363.475C343.004 364.428 343.785 365.056 344.607 365.601C346.263 366.697 347.92 367.805 349.657 368.764C353.036 370.631 356.31 372.647 359.516 374.787C360.531 375.467 361.546 376.154 362.568 376.822C364.693 378.216 366.483 379.986 368.4 381.606C368.734 381.885 368.827 382.248 368.647 382.624C368.466 383 368.226 383.363 367.966 383.694C367.131 384.744 367.197 385.93 368.166 386.864C368.62 387.304 369.081 387.739 369.495 388.218C371.452 390.455 372.922 392.944 373.71 395.803C373.93 396.613 374.318 397.391 374.692 398.15C374.932 398.642 375.393 399.025 375.968 398.999C377.03 398.953 378.072 398.785 378.793 397.877C378.98 397.644 379.194 397.385 379.455 397.281C380.243 396.976 380.597 396.367 380.764 395.634C381.084 394.247 381.445 392.86 381.358 391.421C381.345 391.22 381.358 391.019 381.365 390.818C381.378 390.228 381.619 389.729 382.133 389.424C382.688 389.087 382.928 388.594 383.042 388.011C383.155 387.447 382.988 386.851 383.282 386.293C383.369 386.131 383.215 385.8 383.088 385.599C382.928 385.353 382.694 385.139 382.467 384.951C381.853 384.446 381.806 383.869 382.347 383.298C382.915 382.702 382.908 382.028 382.32 381.444C382.18 381.308 382.033 381.178 381.873 381.036C382.14 380.297 382.868 379.655 382.16 378.786C383.021 378.566 383.315 377.963 383.482 377.282C383.649 376.602 383.81 375.921 383.923 375.234C384.204 373.516 383.75 372.842 381.993 372.446C381.245 372.278 380.597 371.967 379.996 371.526C379.401 371.085 378.8 370.657 378.205 370.229C377.35 369.607 376.482 369.665 375.627 370.216C375.286 370.437 374.966 370.683 374.618 370.93C374.512 370.832 374.405 370.761 374.325 370.67C373.002 369.283 371.466 368.175 369.809 367.183C368.627 366.476 367.518 365.666 366.396 364.875C365.942 364.551 365.561 364.155 365.374 363.591C365.3 363.371 365.006 363.215 364.793 363.047C364.519 362.833 364.178 362.684 363.951 362.438C362.254 360.622 360.598 358.781 358.901 356.979C357.759 355.767 356.523 354.652 355.495 353.33C354.633 352.228 353.511 351.314 352.475 350.341C351.34 349.272 349.93 348.708 348.428 348.28C347.633 348.053 346.851 347.69 346.136 347.269C345.562 346.931 345.008 346.718 344.333 346.75C344.012 346.763 343.658 346.724 343.358 346.614C342.81 346.413 342.242 346.199 341.755 345.888C339.063 344.176 336.605 342.225 334.988 339.444C333.853 337.487 332.717 335.529 331.588 333.571C330.62 331.892 329.638 330.226 328.422 328.696C326.632 326.434 324.501 324.541 322.07 322.953C321.395 322.512 320.827 321.993 320.413 321.306C320.132 320.839 320.032 320.399 320.34 319.906C320.513 319.627 320.627 319.323 320.767 319.024C321.048 318.428 321.074 317.825 320.82 317.209C320.727 316.982 320.667 316.736 320.633 316.49C320.313 314.065 320.086 311.621 319.665 309.216C318.977 305.282 317.02 302.001 313.82 299.473C312.885 298.734 311.836 298.138 310.841 297.47C310.627 297.328 310.327 297.243 310.253 296.926C310.507 296.867 310.728 296.796 310.955 296.764C312.063 296.595 312.538 295.85 312.444 294.845C312.417 294.573 312.397 294.294 312.324 294.034C312.097 293.244 311.876 292.446 311.589 291.675C311.008 290.113 311.048 288.537 311.489 286.962C311.582 286.631 311.75 286.301 311.957 286.029C312.304 285.575 312.531 285.082 312.598 284.525C312.718 283.533 312.885 282.541 312.878 281.549C312.878 278.438 313.493 275.456 314.682 272.571C315.303 271.067 315.844 269.524 316.459 268.02C317.501 265.499 318.149 262.893 318.302 260.17C318.342 259.502 318.436 259.386 319.097 259.269C321.395 258.854 323.573 259.074 325.429 260.604C326.211 261.246 326.805 260.993 327.26 260.377C327.647 259.859 328.008 259.288 328.235 258.692C328.449 258.115 328.796 257.972 329.364 257.908C330.994 257.726 332.65 257.603 334.24 257.227C335.863 256.845 337.119 257.058 338.408 258.167C340.973 260.377 344.046 261.791 347.219 263.022C348.574 263.547 349.904 264.157 351.186 264.844C352.582 265.589 353.911 266.452 355.254 267.288C356.53 268.085 357.779 268.921 359.048 269.725C360.003 270.328 361.039 270.749 362.181 270.931C362.689 271.015 363.176 271.171 363.664 271.326C365.634 271.955 367.652 272.039 369.689 271.838C370.163 271.793 370.644 271.676 370.925 271.3C371.653 270.315 372.541 269.433 372.955 268.234C373.617 266.322 374.358 264.429 375.059 262.53C375.2 262.154 375.353 261.752 375.039 261.395C374.705 261.019 374.244 261.039 373.83 261.194C373.383 261.363 372.969 261.616 372.554 261.842C372.428 261.914 372.327 262.024 372.22 262.115C371.933 261.81 371.666 261.551 371.419 261.272C371.259 261.097 371.072 260.909 370.991 260.695C370.671 259.807 370.39 258.899 370.063 257.895C369.716 257.83 369.301 257.713 368.874 257.687C368.199 257.642 367.945 257.869 367.825 258.517C367.778 258.776 367.752 259.049 367.712 259.386C367.551 259.275 367.458 259.204 367.358 259.133C366.616 258.64 366.242 258.731 365.821 259.483C365.494 260.073 365.447 260.663 365.708 261.233C364.599 261.467 363.504 261.706 362.415 261.933C362.128 261.901 361.787 261.791 361.58 261.557C360.498 260.364 359.175 259.457 357.873 258.517C356.183 257.292 354.486 256.073 352.789 254.861C352.315 254.517 351.834 254.18 351.333 253.882C349.363 252.702 347.345 251.6 345.415 250.362C343.257 248.981 340.986 247.834 338.642 246.803C338.134 246.576 337.573 246.427 337.025 246.349C336.17 246.233 335.295 246.213 334.434 246.155C334.38 245.824 334.327 245.52 334.28 245.208C334.006 245.183 333.806 245.163 333.599 245.15C330.653 244.936 327.694 244.878 324.781 244.294C323.552 244.048 322.29 243.931 321.028 244.223C320.867 244.262 320.654 244.132 320.473 244.068C320.026 243.899 319.591 243.607 319.124 243.562C318.129 243.465 317.227 243.121 316.345 242.719C315.811 242.473 315.276 242.227 314.742 241.987C313.9 241.611 313.019 241.52 312.104 241.63C310.841 241.779 309.652 242.181 308.49 242.654C307.288 243.141 306.466 242.966 305.591 242.013C305.264 241.663 304.883 241.442 304.402 241.384C304.021 241.338 303.634 241.319 303.253 241.248C302.999 241.202 302.759 241.086 302.431 240.975C302.605 240.768 302.685 240.645 302.792 240.554C303.594 239.88 304.542 239.543 305.564 239.329C307.381 238.946 307.381 238.94 308.503 237.546C308.537 237.507 308.57 237.468 308.597 237.429C308.917 237.034 308.971 236.619 308.677 236.185C308.577 236.036 308.456 235.893 308.41 235.731C308.176 234.947 307.688 234.396 307.074 234.234C307.341 233.897 307.608 233.495 307.949 233.151C308.59 232.509 308.623 232.211 307.922 231.621C307.601 231.349 307.495 231.057 307.521 230.675C307.915 230.714 308.256 230.753 308.597 230.785C308.63 230.733 308.657 230.675 308.69 230.623C308.45 230.312 308.256 229.923 307.942 229.715C307.328 229.313 307.134 228.788 307.161 228.121C307.207 227.058 306.867 226.105 306.245 225.242C305.878 224.73 305.517 224.205 305.09 223.751C304.582 223.207 304.429 222.591 304.495 221.885C304.529 221.515 304.589 221.139 304.576 220.77C304.515 219.505 303.721 218.585 302.451 218.384C301.997 218.313 301.763 218.079 301.576 217.749C301.115 216.932 300.354 216.556 299.459 216.407C298.878 216.316 298.283 216.225 297.695 216.245C296.994 216.264 296.38 216.109 295.785 215.778C295.498 215.616 295.191 215.48 294.91 215.305C294.195 214.864 293.434 214.682 292.652 214.682C292.272 214.682 291.884 214.728 291.49 214.799M168.558 325.235L214.814 320.049V301.217L185.631 303.032L185.704 269.012H207.453L207.467 252.32L185.738 251.788L185.804 219.92L214.821 222.474V203.546L168.838 197.517L168.571 325.235H168.558ZM125.614 330.265L143.482 328.197L165.311 196.895L148.265 194.71C148.265 194.71 139.254 254.841 134.605 284.68C129.769 253.701 121.379 191.099 121.379 191.099L104.319 188.83L125.614 330.271V330.265ZM83.9998 335.289L100.946 333.163L100.979 188.467L83.953 186.153L83.9998 335.295V335.289ZM41.25 340.585L59.0446 338.154L80.3193 185.641L63.3396 183.275C63.3396 183.275 54.4824 254.738 50.1072 290.242C45.5183 253.487 41.0562 216.724 36.7946 179.93C30.0548 178.945 26.695 178.452 19.9886 177.447C26.8018 231.861 41.25 340.579 41.25 340.579M42.6861 144.121C39.6936 143.803 38.1973 143.648 35.1982 143.33C35.1381 115.656 35.0713 87.989 35.0111 60.3153C37.9836 59.9328 39.4665 59.7383 42.4389 59.3559C48.5441 58.5715 54.322 61.9553 54.3621 73.2608C54.449 98.348 54.4957 104.681 54.5826 129.769C54.6226 140.529 49.5461 144.199 44.0621 144.199C43.6079 144.199 43.147 144.173 42.6861 144.127M44.376 38.2295C34.2296 39.6945 19 41.8921 19 41.8921V161.876C19 161.876 34.5369 163.97 44.7301 165.357C60.0198 167.438 70.5269 152.12 70.4467 131.201C70.3466 105.064 70.2931 97.7905 70.1929 71.692C70.1194 52.3353 60.8681 38.0156 47.2817 38.0156C46.3332 38.0156 45.3646 38.0869 44.3694 38.2295M77.6741 33.4389L78.1818 169.902L94.1128 172.06L93.6385 31.1506L77.6808 33.4454L77.6741 33.4389ZM101.16 30.0616L101.594 173.071L144.337 178.873L144.317 152.833L117.338 150.48L117.231 107.067L137.437 107.19L137.417 90.7246L117.191 91.2302C117.191 91.2302 117.131 68.1007 117.091 49.4506C127.952 48.1153 133.376 47.454 144.224 46.1511C144.217 37.497 144.204 23.8514 144.204 23.8514L101.167 30.068L101.16 30.0616ZM174.776 17.9847C159.66 19.9489 149.14 39.0852 149.153 60.406C149.173 87.7232 149.193 115.689 149.213 142.999C149.227 164.132 159.674 182.86 174.69 184.597C189.866 186.354 200.346 170.187 200.38 147.297C200.4 130.32 200.5 89.2271 200.5 89.2271L174.736 89.8624L174.723 107.423L184.542 107.475C184.542 107.475 184.529 137.742 184.522 146.701C184.509 158.363 179.773 161.902 174.71 161.371C170.301 160.91 165.078 156.813 165.078 145.048C165.078 116.22 165.084 86.7443 165.091 57.9232C165.091 46.8382 169.693 42.3134 174.783 41.7041C179.873 41.1012 184.629 44.5499 184.616 55.9785C190.981 55.3497 194.161 55.0385 200.52 54.4162C200.239 33.2509 190.874 17.8356 177.234 17.8356C176.433 17.8356 175.625 17.8875 174.796 17.9977M233.751 168.391C228.568 167.911 223.732 163.296 223.752 151.012C223.798 118.094 223.845 84.0736 223.892 51.1555C223.912 38.8712 228.588 34.1909 233.918 33.5945C239.081 33.0176 243.744 36.6802 243.731 49.2756C243.704 83.3216 243.67 118.476 243.637 152.522C243.624 164.443 239.275 168.43 234.553 168.43C234.285 168.43 234.018 168.417 233.744 168.391M233.945 9.14261C218.455 10.9966 207.747 30.1653 207.714 53.6902C207.667 85.0848 207.62 117.594 207.58 148.989C207.547 172.281 218.167 191.281 233.724 192.849C249.114 194.399 260.069 177.823 260.069 152.924V48.8024C260.062 24.9274 250.343 9 236.256 9C235.495 9 234.726 9.04538 233.938 9.14261" fill="white"/>
</g>
<defs>
<filter id="filter0_d_2004_391" x="0.700001" y="0.700001" width="417.6" height="442.6" filterUnits="userSpaceOnUse" color-interpolation-filters="sRGB">
<feFlood flood-opacity="0" result="BackgroundImageFix"/>
<feColorMatrix in="SourceAlpha" type="matrix" values="0 0 0 0 0 0 0 0 0 0 0 0 0 0 0 0 0 0 127 0" result="hardAlpha"/>
<feOffset dx="8" dy="18"/>
<feGaussianBlur stdDeviation="13.15"/>
<feComposite in2="hardAlpha" operator="out"/>
<feColorMatrix type="matrix" values="0 0 0 0 0 0 0 0 0 0 0 0 0 0 0 0 0 0 0.25 0"/>
<feBlend mode="normal" in2="BackgroundImageFix" result="effect1_dropShadow_2004_391"/>
<feBlend mode="normal" in="SourceGraphic" in2="effect1_dropShadow_2004_391" result="shape"/>
</filter>
</defs>
</svg>
